<svg width="27" height="22" viewBox="0 0 27 22" fill="none" xmlns="http://www.w3.org/2000/svg">
<path d="M26.575 3C25.6125 3.4375 24.575 3.725 23.5 3.8625C24.6 3.2 25.45 2.15 25.85 0.8875C24.8125 1.5125 23.6625 1.95 22.45 2.2C21.4625 1.125 20.075 0.5 18.5 0.5C15.5625 0.5 13.1625 2.9 13.1625 5.8625C13.1625 6.2875 13.2125 6.7 13.3 7.0875C8.85005 6.8625 4.88755 4.725 2.25005 1.4875C1.78755 2.275 1.52505 3.2 1.52505 4.175C1.52505 6.0375 2.46255 7.6875 3.91255 8.625C3.02505 8.625 2.20005 8.375 1.47505 8V8.0375C1.47505 10.6375 3.32505 12.8125 5.77505 13.3C4.98846 13.5153 4.16267 13.5452 3.36255 13.3875C3.70206 14.4531 4.36697 15.3855 5.26382 16.0537C6.16067 16.7218 7.24436 17.0921 8.36255 17.1125C6.46709 18.613 4.11754 19.4241 1.70005 19.4125C1.27505 19.4125 0.850049 19.3875 0.425049 19.3375C2.80005 20.8625 5.62505 21.75 8.65005 21.75C18.5 21.75 23.9125 13.575 23.9125 6.4875C23.9125 6.25 23.9125 6.025 23.9 5.7875C24.95 5.0375 25.85 4.0875 26.575 3Z" fill="black"/>
</svg>
