<svg width="25" height="18" viewBox="0 0 25 18" fill="none" xmlns="http://www.w3.org/2000/svg">
<path d="M1.25 1.25V7.5C1.25 8.49456 1.64509 9.44839 2.34835 10.1517C3.05161 10.8549 4.00544 11.25 5 11.25C5.99456 11.25 6.94839 10.8549 7.65165 10.1517C8.35491 9.44839 8.75 8.49456 8.75 7.5V1.25H10L15 8.75C16.03 10.3988 17.4313 11.25 19.375 11.25C20.5353 11.25 21.6481 10.7891 22.4686 9.96859C23.2891 9.14812 23.75 8.03532 23.75 6.875C23.75 5.71468 23.2891 4.60188 22.4686 3.78141C21.6481 2.96094 20.5353 2.5 19.375 2.5C16.8412 2.5 15.4538 3.75 15 6.25C14.6975 7.9125 13.865 11.25 12.5 16.25" stroke="black" stroke-width="2" stroke-linecap="round" stroke-linejoin="round"/>
</svg>
